<svg width="211" height="45" viewBox="0 0 211 45" fill="none" xmlns="http://www.w3.org/2000/svg">
<path d="M0 42.7043V2C0 0.895431 0.89543 0 2 0H25.8752C26.9798 0 27.8752 0.895431 27.8752 2V6.4784C27.8752 7.58297 26.9798 8.4784 25.8752 8.4784H10.1303C9.02571 8.4784 8.13028 9.37383 8.13028 10.4784V16.4983C8.13028 17.6029 9.02571 18.4983 10.1303 18.4983H24.7138C25.8183 18.4983 26.7138 19.3937 26.7138 20.4983V25.3621C26.7138 26.4667 25.8183 27.3621 24.7138 27.3621H10.1303C9.02571 27.3621 8.13028 28.2575 8.13028 29.3621V34.9966C8.13028 36.1012 9.02571 36.9966 10.1303 36.9966H25.8752C26.9798 36.9966 27.8752 37.8921 27.8752 38.9966V42.7043C27.8752 43.8088 26.9798 44.7043 25.8752 44.7043H2C0.895431 44.7043 0 43.8088 0 42.7043Z" fill="#0078D4"/>
<path d="M75.8826 42.7043V2C75.8826 0.895431 76.778 0 77.8826 0H101.758C102.862 0 103.758 0.895431 103.758 2V6.4784C103.758 7.58297 102.862 8.4784 101.758 8.4784H86.0128C84.9083 8.4784 84.0128 9.37383 84.0128 10.4784V16.4983C84.0128 17.6029 84.9083 18.4983 86.0128 18.4983H100.596C101.701 18.4983 102.596 19.3937 102.596 20.4983V25.3621C102.596 26.4667 101.701 27.3621 100.596 27.3621H86.0128C84.9083 27.3621 84.0128 28.2575 84.0128 29.3621V34.9966C84.0128 36.1012 84.9083 36.9966 86.0128 36.9966H101.758C102.862 36.9966 103.758 37.8921 103.758 38.9966V42.7043C103.758 43.8088 102.862 44.7043 101.758 44.7043H77.8826C76.778 44.7043 75.8826 43.8088 75.8826 42.7043Z" fill="#0078D4"/>
<path d="M34.0698 9.17607V2C34.0698 0.895431 34.9653 0 36.0698 0H67.6882C68.7927 0 69.6882 0.895433 69.6882 2V9.17607C69.6882 10.2806 68.7927 11.1761 67.6882 11.1761H60.0735C58.9689 11.1761 58.0735 12.0715 58.0735 13.1761V42.7043C58.0735 43.8088 57.1781 44.7043 56.0735 44.7043H48.846C47.7414 44.7043 46.846 43.8088 46.846 42.7043V13.1761C46.846 12.0715 45.9505 11.1761 44.846 11.1761H36.0698C34.9653 11.1761 34.0698 10.2806 34.0698 9.17607Z" fill="#005A9E"/>
<path d="M145.571 42.7043L145.571 36.5246C145.571 35.42 144.675 34.5246 143.571 34.5246H124.729C123.624 34.5246 122.729 33.6292 122.729 32.5246L122.729 12.0199C122.729 10.9154 123.624 10.0199 124.728 10.0199H143.571C144.675 10.0199 145.571 9.12449 145.571 8.01992V2C145.571 0.895431 144.675 0 143.571 0H113.501C112.396 0 111.501 0.895434 111.501 2V42.7043C111.501 43.8088 112.396 44.7043 113.501 44.7043H143.571C144.675 44.7043 145.571 43.8088 145.571 42.7043Z" fill="#005A9E"/>
<path d="M151.765 42.748V2C151.765 0.895431 152.661 0 153.765 0H166.026C167.13 0 168.026 0.895431 168.026 2V20.8106L183.899 0H197.839C198.749 0 199.545 0.615469 199.774 1.49707L210.352 42.2086C210.68 43.473 209.728 44.7078 208.421 44.7115L194.793 44.7496C193.857 44.7522 193.044 44.1046 192.837 43.1912L187.771 20.8106L168.026 44.7043L153.771 44.748C152.664 44.7513 151.765 43.8549 151.765 42.748Z" fill="#0078D4"/>
<path d="M168.026 44.7043V20.8106L183.899 0L187.771 20.8106L168.026 44.7043Z" fill="#005A9E"/>
</svg>
