<svg width="211" height="78" viewBox="0 0 211 78" fill="none" xmlns="http://www.w3.org/2000/svg">
<path d="M6.44447 76.9344C6.3838 76.9344 6.33614 76.9171 6.30147 76.8824C6.2668 76.8478 6.24947 76.8044 6.24947 76.7524V67.5094C6.24947 67.4401 6.2668 67.3881 6.30147 67.3534C6.3448 67.3101 6.3968 67.2884 6.45747 67.2884H9.61647C10.8125 67.2884 11.7311 67.5008 12.3725 67.9254C13.0138 68.3501 13.3345 68.9741 13.3345 69.7974C13.3345 70.3088 13.2001 70.7378 12.9315 71.0844C12.6628 71.4311 12.2295 71.7171 11.6315 71.9424C11.5968 71.9511 11.5795 71.9728 11.5795 72.0074C11.5795 72.0334 11.5968 72.0508 11.6315 72.0594C12.2728 72.2328 12.7538 72.5058 13.0745 72.8784C13.4038 73.2424 13.5685 73.7321 13.5685 74.3474C13.5685 75.2228 13.2391 75.8728 12.5805 76.2974C11.9305 76.7221 10.9815 76.9344 9.73347 76.9344H6.44447ZM9.66847 75.8294C10.4311 75.8294 10.9988 75.6994 11.3715 75.4394C11.7441 75.1708 11.9305 74.7764 11.9305 74.2564C11.9305 73.8751 11.8351 73.5674 11.6445 73.3334C11.4625 73.0908 11.2111 72.9131 10.8905 72.8004C10.5698 72.6878 10.2058 72.6314 9.79847 72.6314H8.03047C7.8918 72.6314 7.82247 72.6878 7.82247 72.8004V75.6344C7.82247 75.7644 7.87014 75.8294 7.96547 75.8294H9.66847ZM9.79847 71.4874C10.0411 71.4874 10.2751 71.4658 10.5005 71.4224C10.7345 71.3704 10.9468 71.2881 11.1375 71.1754C11.3281 71.0541 11.4798 70.8981 11.5925 70.7074C11.7051 70.5081 11.7615 70.2654 11.7615 69.9794C11.7615 69.4508 11.5665 69.0564 11.1765 68.7964C10.7951 68.5278 10.2838 68.3934 9.64247 68.3934H8.01747C7.88747 68.3934 7.82247 68.4498 7.82247 68.5624V71.3054C7.82247 71.4268 7.87014 71.4874 7.96547 71.4874H9.79847ZM16.8449 67.2884C16.9575 67.2884 17.0139 67.3534 17.0139 67.4834V76.6874C17.0139 76.7828 16.9922 76.8478 16.9489 76.8824C16.9142 76.9171 16.8449 76.9344 16.7409 76.9344H15.6749C15.5795 76.9344 15.5145 76.9214 15.4799 76.8954C15.4539 76.8608 15.4409 76.8044 15.4409 76.7264V67.4834C15.4409 67.3534 15.5015 67.2884 15.6229 67.2884H16.8449ZM19.5079 76.9344C19.4473 76.9344 19.3996 76.9171 19.3649 76.8824C19.3303 76.8478 19.3129 76.8044 19.3129 76.7524V67.5094C19.3129 67.4401 19.3303 67.3881 19.3649 67.3534C19.4083 67.3101 19.4603 67.2884 19.5209 67.2884H22.6799C23.8759 67.2884 24.7946 67.5008 25.4359 67.9254C26.0773 68.3501 26.3979 68.9741 26.3979 69.7974C26.3979 70.3088 26.2636 70.7378 25.9949 71.0844C25.7263 71.4311 25.2929 71.7171 24.6949 71.9424C24.6603 71.9511 24.6429 71.9728 24.6429 72.0074C24.6429 72.0334 24.6603 72.0508 24.6949 72.0594C25.3363 72.2328 25.8173 72.5058 26.1379 72.8784C26.4673 73.2424 26.6319 73.7321 26.6319 74.3474C26.6319 75.2228 26.3026 75.8728 25.6439 76.2974C24.9939 76.7221 24.0449 76.9344 22.7969 76.9344H19.5079ZM22.7319 75.8294C23.4946 75.8294 24.0623 75.6994 24.4349 75.4394C24.8076 75.1708 24.9939 74.7764 24.9939 74.2564C24.9939 73.8751 24.8986 73.5674 24.7079 73.3334C24.5259 73.0908 24.2746 72.9131 23.9539 72.8004C23.6333 72.6878 23.2693 72.6314 22.8619 72.6314H21.0939C20.9553 72.6314 20.8859 72.6878 20.8859 72.8004V75.6344C20.8859 75.7644 20.9336 75.8294 21.0289 75.8294H22.7319ZM22.8619 71.4874C23.1046 71.4874 23.3386 71.4658 23.5639 71.4224C23.7979 71.3704 24.0103 71.2881 24.2009 71.1754C24.3916 71.0541 24.5433 70.8981 24.6559 70.7074C24.7686 70.5081 24.8249 70.2654 24.8249 69.9794C24.8249 69.4508 24.6299 69.0564 24.2399 68.7964C23.8586 68.5278 23.3473 68.3934 22.7059 68.3934H21.0809C20.9509 68.3934 20.8859 68.4498 20.8859 68.5624V71.3054C20.8859 71.4268 20.9336 71.4874 21.0289 71.4874H22.8619ZM28.5044 67.4834C28.5044 67.3534 28.565 67.2884 28.6864 67.2884H29.9084C30.021 67.2884 30.0774 67.3534 30.0774 67.4834V75.6084C30.0774 75.7038 30.1207 75.7514 30.2074 75.7514H34.6014C34.7227 75.7514 34.7834 75.8034 34.7834 75.9074V76.7654C34.7834 76.8174 34.766 76.8608 34.7314 76.8954C34.7054 76.9214 34.662 76.9344 34.6014 76.9344H28.7254C28.6387 76.9344 28.578 76.9171 28.5434 76.8824C28.5174 76.8478 28.5044 76.7958 28.5044 76.7264V67.4834ZM37.8429 67.2884C37.9556 67.2884 38.0119 67.3534 38.0119 67.4834V76.6874C38.0119 76.7828 37.9903 76.8478 37.9469 76.8824C37.9123 76.9171 37.8429 76.9344 37.7389 76.9344H36.6729C36.5776 76.9344 36.5126 76.9214 36.4779 76.8954C36.4519 76.8608 36.4389 76.8044 36.4389 76.7264V67.4834C36.4389 67.3534 36.4996 67.2884 36.6209 67.2884H37.8429ZM44.159 77.0644C43.2837 77.0644 42.5297 76.8738 41.897 76.4924C41.2643 76.1024 40.779 75.5434 40.441 74.8154C40.103 74.0788 39.934 73.1904 39.934 72.1504C39.934 71.1018 40.1073 70.2048 40.454 69.4594C40.8007 68.7141 41.2903 68.1464 41.923 67.7564C42.5557 67.3578 43.3053 67.1584 44.172 67.1584C45.03 67.1584 45.771 67.3578 46.395 67.7564C47.0277 68.1464 47.513 68.7141 47.851 69.4594C48.1977 70.1961 48.371 71.0888 48.371 72.1374C48.371 73.1774 48.202 74.0658 47.864 74.8024C47.526 75.5304 47.0407 76.0894 46.408 76.4794C45.7753 76.8694 45.0257 77.0644 44.159 77.0644ZM44.172 75.9074C45.0387 75.9074 45.68 75.6084 46.096 75.0104C46.5207 74.4038 46.733 73.4504 46.733 72.1504C46.733 70.8331 46.5163 69.8624 46.083 69.2384C45.6583 68.6144 45.0213 68.3024 44.172 68.3024C43.3053 68.3024 42.6553 68.6188 42.222 69.2514C41.7887 69.8754 41.572 70.8418 41.572 72.1504C41.572 73.4418 41.7887 74.3908 42.222 74.9974C42.6553 75.6041 43.3053 75.9074 44.172 75.9074ZM48.967 67.4704C48.967 67.4098 48.98 67.3664 49.006 67.3404C49.0406 67.3058 49.0926 67.2884 49.162 67.2884H56.299C56.3683 67.2884 56.416 67.3058 56.442 67.3404C56.468 67.3664 56.481 67.4098 56.481 67.4704V68.3024C56.481 68.4064 56.4203 68.4584 56.299 68.4584H53.725C53.6296 68.4584 53.582 68.4974 53.582 68.5754V76.7394C53.582 76.8694 53.5256 76.9344 53.413 76.9344H52.191C52.0783 76.9344 52.022 76.8738 52.022 76.7524V68.6014C52.022 68.5061 51.9743 68.4584 51.879 68.4584H49.149C49.0276 68.4584 48.967 68.4064 48.967 68.3024V67.4704ZM58.1352 67.4834C58.1352 67.3534 58.1959 67.2884 58.3172 67.2884H64.3752C64.4792 67.2884 64.5312 67.3448 64.5312 67.4574L64.5182 68.2764C64.5182 68.4064 64.4532 68.4714 64.3232 68.4714H59.9032C59.7732 68.4714 59.7082 68.5278 59.7082 68.6404V71.3184C59.7082 71.4311 59.7645 71.4874 59.8772 71.4874H63.0492C63.1619 71.4874 63.2182 71.5394 63.2182 71.6434V72.5144C63.2182 72.5578 63.2052 72.5924 63.1792 72.6184C63.1619 72.6444 63.1185 72.6574 63.0492 72.6574H59.8642C59.7602 72.6574 59.7082 72.7051 59.7082 72.8004V75.6084C59.7082 75.7038 59.7515 75.7514 59.8382 75.7514H64.5052C64.6265 75.7514 64.6872 75.8034 64.6872 75.9074V76.7654C64.6872 76.8174 64.6742 76.8608 64.6482 76.8954C64.6222 76.9214 64.5745 76.9344 64.5052 76.9344H58.3562C58.2089 76.9344 58.1352 76.8651 58.1352 76.7264V67.4834ZM69.7131 67.1584C70.1725 67.1584 70.6058 67.2321 71.0131 67.3794C71.4291 67.5181 71.8018 67.7131 72.1311 67.9644C72.4605 68.2158 72.7291 68.5061 72.9371 68.8354C73.1538 69.1561 73.2925 69.5071 73.3531 69.8884C73.3705 69.9838 73.3705 70.0488 73.3531 70.0834C73.3358 70.1094 73.2968 70.1268 73.2361 70.1354L72.0271 70.2134C71.9751 70.2221 71.9405 70.2134 71.9231 70.1874C71.9058 70.1614 71.8885 70.1224 71.8711 70.0704C71.7585 69.5504 71.5201 69.1258 71.1561 68.7964C70.7921 68.4671 70.3285 68.3024 69.7651 68.3024C68.9418 68.3024 68.3048 68.6144 67.8541 69.2384C67.4121 69.8624 67.1911 70.8158 67.1911 72.0984C67.1911 73.3638 67.4078 74.3084 67.8411 74.9324C68.2831 75.5564 68.9418 75.8684 69.8171 75.8684C70.3978 75.8684 70.8831 75.7298 71.2731 75.4524C71.6718 75.1664 71.9968 74.7028 72.2481 74.0614C72.2741 74.0008 72.3391 73.9791 72.4431 73.9964L73.3661 74.2174C73.3921 74.2261 73.4181 74.2434 73.4441 74.2694C73.4701 74.2954 73.4745 74.3518 73.4571 74.4384C73.3965 74.6638 73.2968 74.8978 73.1581 75.1404C73.0195 75.3831 72.8461 75.6214 72.6381 75.8554C72.4301 76.0808 72.1831 76.2844 71.8971 76.4664C71.6111 76.6484 71.2861 76.7958 70.9221 76.9084C70.5668 77.0124 70.1768 77.0644 69.7521 77.0644C68.8768 77.0644 68.1228 76.8608 67.4901 76.4534C66.8661 76.0461 66.3851 75.4698 66.0471 74.7244C65.7091 73.9791 65.5401 73.0994 65.5401 72.0854C65.5401 71.0628 65.7091 70.1831 66.0471 69.4464C66.3851 68.7098 66.8661 68.1464 67.4901 67.7564C68.1141 67.3578 68.8551 67.1584 69.7131 67.1584ZM74.4253 76.9344C74.3647 76.9344 74.3213 76.9084 74.2953 76.8564C74.2693 76.8044 74.2693 76.7394 74.2953 76.6614L77.6103 67.4964C77.6363 67.4184 77.671 67.3664 77.7143 67.3404C77.7577 67.3058 77.8183 67.2884 77.8963 67.2884H79.2093C79.374 67.2884 79.4823 67.3621 79.5343 67.5094L82.8233 76.6744C82.8493 76.7351 82.8493 76.7958 82.8233 76.8564C82.7973 76.9084 82.7497 76.9344 82.6803 76.9344H81.4583C81.3457 76.9344 81.272 76.8824 81.2373 76.7784L80.4053 74.4644C80.3967 74.4211 80.3793 74.3908 80.3533 74.3734C80.336 74.3561 80.3013 74.3474 80.2493 74.3474H76.6483C76.5703 74.3474 76.5183 74.3821 76.4923 74.4514L75.6473 76.8044C75.63 76.8478 75.604 76.8824 75.5693 76.9084C75.5433 76.9258 75.4957 76.9344 75.4263 76.9344H74.4253ZM79.8463 73.1254C79.959 73.1254 79.9937 73.0648 79.9503 72.9434L78.5463 69.0434C78.5117 68.9741 78.477 68.9394 78.4423 68.9394C78.4163 68.9394 78.3903 68.9784 78.3643 69.0564L76.9213 72.9564C76.878 73.0691 76.9083 73.1254 77.0123 73.1254H79.8463ZM87.271 67.4834C87.271 67.3534 87.3316 67.2884 87.453 67.2884H93.511C93.615 67.2884 93.667 67.3448 93.667 67.4574L93.654 68.2764C93.654 68.4064 93.589 68.4714 93.459 68.4714H89.039C88.909 68.4714 88.844 68.5278 88.844 68.6404V71.3184C88.844 71.4311 88.9003 71.4874 89.013 71.4874H92.185C92.2976 71.4874 92.354 71.5394 92.354 71.6434V72.5144C92.354 72.5578 92.341 72.5924 92.315 72.6184C92.2976 72.6444 92.2543 72.6574 92.185 72.6574H89C88.896 72.6574 88.844 72.7051 88.844 72.8004V75.6084C88.844 75.7038 88.8873 75.7514 88.974 75.7514H93.641C93.7623 75.7514 93.823 75.8034 93.823 75.9074V76.7654C93.823 76.8174 93.81 76.8608 93.784 76.8954C93.758 76.9214 93.7103 76.9344 93.641 76.9344H87.492C87.3446 76.9344 87.271 76.8651 87.271 76.7264V67.4834ZM97.8355 76.9344C97.7748 76.9344 97.7315 76.9084 97.7055 76.8564C97.6795 76.8044 97.6795 76.7394 97.7055 76.6614L101.02 67.4964C101.046 67.4184 101.081 67.3664 101.124 67.3404C101.168 67.3058 101.228 67.2884 101.306 67.2884H102.619C102.784 67.2884 102.892 67.3621 102.944 67.5094L106.233 76.6744C106.259 76.7351 106.259 76.7958 106.233 76.8564C106.207 76.9084 106.16 76.9344 106.09 76.9344H104.868C104.756 76.9344 104.682 76.8824 104.647 76.7784L103.815 74.4644C103.807 74.4211 103.789 74.3908 103.763 74.3734C103.746 74.3561 103.711 74.3474 103.659 74.3474H100.058C99.9805 74.3474 99.9285 74.3821 99.9025 74.4514L99.0575 76.8044C99.0402 76.8478 99.0142 76.8824 98.9795 76.9084C98.9535 76.9258 98.9058 76.9344 98.8365 76.9344H97.8355ZM103.256 73.1254C103.369 73.1254 103.404 73.0648 103.36 72.9434L101.956 69.0434C101.922 68.9741 101.887 68.9394 101.852 68.9394C101.826 68.9394 101.8 68.9784 101.774 69.0564L100.331 72.9564C100.288 73.0691 100.318 73.1254 100.422 73.1254H103.256ZM111.138 67.1584C111.597 67.1584 112.031 67.2321 112.438 67.3794C112.854 67.5181 113.227 67.7131 113.556 67.9644C113.885 68.2158 114.154 68.5061 114.362 68.8354C114.579 69.1561 114.717 69.5071 114.778 69.8884C114.795 69.9838 114.795 70.0488 114.778 70.0834C114.761 70.1094 114.722 70.1268 114.661 70.1354L113.452 70.2134C113.4 70.2221 113.365 70.2134 113.348 70.1874C113.331 70.1614 113.313 70.1224 113.296 70.0704C113.183 69.5504 112.945 69.1258 112.581 68.7964C112.217 68.4671 111.753 68.3024 111.19 68.3024C110.367 68.3024 109.73 68.6144 109.279 69.2384C108.837 69.8624 108.616 70.8158 108.616 72.0984C108.616 73.3638 108.833 74.3084 109.266 74.9324C109.708 75.5564 110.367 75.8684 111.242 75.8684C111.823 75.8684 112.308 75.7298 112.698 75.4524C113.097 75.1664 113.422 74.7028 113.673 74.0614C113.699 74.0008 113.764 73.9791 113.868 73.9964L114.791 74.2174C114.817 74.2261 114.843 74.2434 114.869 74.2694C114.895 74.2954 114.899 74.3518 114.882 74.4384C114.821 74.6638 114.722 74.8978 114.583 75.1404C114.444 75.3831 114.271 75.6214 114.063 75.8554C113.855 76.0808 113.608 76.2844 113.322 76.4664C113.036 76.6484 112.711 76.7958 112.347 76.9084C111.992 77.0124 111.602 77.0644 111.177 77.0644C110.302 77.0644 109.548 76.8608 108.915 76.4534C108.291 76.0461 107.81 75.4698 107.472 74.7244C107.134 73.9791 106.965 73.0994 106.965 72.0854C106.965 71.0628 107.134 70.1831 107.472 69.4464C107.81 68.7098 108.291 68.1464 108.915 67.7564C109.539 67.3578 110.28 67.1584 111.138 67.1584ZM116.61 67.4834C116.61 67.3534 116.67 67.2884 116.792 67.2884H122.85C122.954 67.2884 123.006 67.3448 123.006 67.4574L122.993 68.2764C122.993 68.4064 122.928 68.4714 122.798 68.4714H118.378C118.248 68.4714 118.183 68.5278 118.183 68.6404V71.3184C118.183 71.4311 118.239 71.4874 118.352 71.4874H121.524C121.636 71.4874 121.693 71.5394 121.693 71.6434V72.5144C121.693 72.5578 121.68 72.5924 121.654 72.6184C121.636 72.6444 121.593 72.6574 121.524 72.6574H118.339C118.235 72.6574 118.183 72.7051 118.183 72.8004V75.6084C118.183 75.7038 118.226 75.7514 118.313 75.7514H122.98C123.101 75.7514 123.162 75.8034 123.162 75.9074V76.7654C123.162 76.8174 123.149 76.8608 123.123 76.8954C123.097 76.9214 123.049 76.9344 122.98 76.9344H116.831C116.683 76.9344 116.61 76.8651 116.61 76.7264V67.4834ZM132.063 76.6614C132.089 76.7308 132.085 76.7958 132.05 76.8564C132.024 76.9084 131.977 76.9344 131.907 76.9344H130.646C130.542 76.9344 130.464 76.8738 130.412 76.7524L128.826 72.8004C128.783 72.6964 128.675 72.6444 128.501 72.6444H126.603C126.543 72.6444 126.499 72.6618 126.473 72.6964C126.456 72.7224 126.447 72.7528 126.447 72.7874V76.7004C126.447 76.8564 126.365 76.9344 126.2 76.9344H125.095C125.009 76.9344 124.948 76.9171 124.913 76.8824C124.887 76.8478 124.874 76.7958 124.874 76.7264V67.4834C124.874 67.3534 124.935 67.2884 125.056 67.2884H128.813C129.879 67.2884 130.707 67.5051 131.296 67.9384C131.894 68.3718 132.193 69.0044 132.193 69.8364C132.193 70.3131 132.102 70.7248 131.92 71.0714C131.738 71.4094 131.504 71.6868 131.218 71.9034C130.941 72.1114 130.642 72.2631 130.321 72.3584C130.261 72.3844 130.243 72.4364 130.269 72.5144L132.063 76.6614ZM128.501 71.5394C129.177 71.5394 129.689 71.4138 130.035 71.1624C130.391 70.9024 130.568 70.4994 130.568 69.9534C130.568 69.4334 130.408 69.0434 130.087 68.7834C129.767 68.5234 129.312 68.3934 128.722 68.3934H126.655C126.517 68.3934 126.447 68.4454 126.447 68.5494V71.3574C126.447 71.4788 126.495 71.5394 126.59 71.5394H128.501ZM141.312 67.2884C141.381 67.2884 141.429 67.3101 141.455 67.3534C141.49 67.3968 141.494 67.4488 141.468 67.5094L138.218 76.7134C138.175 76.8608 138.066 76.9344 137.893 76.9344H136.788C136.597 76.9344 136.48 76.8651 136.437 76.7264L133.252 67.5224C133.235 67.4531 133.239 67.3968 133.265 67.3534C133.3 67.3101 133.347 67.2884 133.408 67.2884H134.63C134.743 67.2884 134.816 67.3448 134.851 67.4574L137.386 74.9324C137.447 75.0971 137.507 75.0928 137.568 74.9194L140.09 67.4574C140.125 67.3448 140.203 67.2884 140.324 67.2884H141.312ZM146.42 77.0644C145.544 77.0644 144.79 76.8738 144.158 76.4924C143.525 76.1024 143.04 75.5434 142.702 74.8154C142.364 74.0788 142.195 73.1904 142.195 72.1504C142.195 71.1018 142.368 70.2048 142.715 69.4594C143.061 68.7141 143.551 68.1464 144.184 67.7564C144.816 67.3578 145.566 67.1584 146.433 67.1584C147.291 67.1584 148.032 67.3578 148.656 67.7564C149.288 68.1464 149.774 68.7141 150.112 69.4594C150.458 70.1961 150.632 71.0888 150.632 72.1374C150.632 73.1774 150.463 74.0658 150.125 74.8024C149.787 75.5304 149.301 76.0894 148.669 76.4794C148.036 76.8694 147.286 77.0644 146.42 77.0644ZM146.433 75.9074C147.299 75.9074 147.941 75.6084 148.357 75.0104C148.781 74.4038 148.994 73.4504 148.994 72.1504C148.994 70.8331 148.777 69.8624 148.344 69.2384C147.919 68.6144 147.282 68.3024 146.433 68.3024C145.566 68.3024 144.916 68.6188 144.483 69.2514C144.049 69.8754 143.833 70.8418 143.833 72.1504C143.833 73.4418 144.049 74.3908 144.483 74.9974C144.916 75.6041 145.566 75.9074 146.433 75.9074ZM155.513 67.2884C155.609 67.2884 155.76 67.2884 155.968 67.2884C156.185 67.2884 156.415 67.2928 156.657 67.3014C156.909 67.3014 157.138 67.3014 157.346 67.3014C157.563 67.3014 157.723 67.3014 157.827 67.3014C159.015 67.3188 159.981 67.5181 160.726 67.8994C161.472 68.2721 162.018 68.8051 162.364 69.4984C162.72 70.1918 162.897 71.0411 162.897 72.0464C162.897 73.1038 162.707 73.9964 162.325 74.7244C161.953 75.4524 161.381 76.0028 160.609 76.3754C159.847 76.7481 158.88 76.9344 157.71 76.9344H155.526C155.37 76.9344 155.292 76.8564 155.292 76.7004V67.4964C155.292 67.4184 155.31 67.3664 155.344 67.3404C155.379 67.3058 155.435 67.2884 155.513 67.2884ZM156.995 68.4454C156.909 68.4454 156.865 68.5061 156.865 68.6274V75.6344C156.865 75.7384 156.917 75.7904 157.021 75.7904H157.45C158.326 75.7904 159.045 75.6691 159.608 75.4264C160.172 75.1838 160.588 74.7938 160.856 74.2564C161.125 73.7104 161.259 72.9911 161.259 72.0984C161.259 71.1798 161.125 70.4561 160.856 69.9274C160.588 69.3988 160.176 69.0218 159.621 68.7964C159.075 68.5624 158.378 68.4454 157.528 68.4454H156.995ZM166.205 67.2884C166.318 67.2884 166.374 67.3534 166.374 67.4834V76.6874C166.374 76.7828 166.353 76.8478 166.309 76.8824C166.275 76.9171 166.205 76.9344 166.101 76.9344H165.035C164.94 76.9344 164.875 76.9214 164.84 76.8954C164.814 76.8608 164.801 76.8044 164.801 76.7264V67.4834C164.801 67.3534 164.862 67.2884 164.983 67.2884H166.205ZM172.417 77.0644C171.577 77.0644 170.844 76.8651 170.22 76.4664C169.596 76.0678 169.115 75.5001 168.777 74.7634C168.448 74.0268 168.283 73.1558 168.283 72.1504C168.283 71.1104 168.457 70.2178 168.803 69.4724C169.159 68.7271 169.653 68.1551 170.285 67.7564C170.918 67.3578 171.655 67.1584 172.495 67.1584C173.128 67.1584 173.704 67.2841 174.224 67.5354C174.753 67.7868 175.182 68.1161 175.511 68.5234C175.849 68.9221 176.057 69.3511 176.135 69.8104C176.153 69.8971 176.153 69.9578 176.135 69.9924C176.118 70.0184 176.079 70.0401 176.018 70.0574L174.835 70.2394C174.783 70.2481 174.744 70.2394 174.718 70.2134C174.701 70.1874 174.688 70.1441 174.679 70.0834C174.619 69.7541 174.489 69.4594 174.289 69.1994C174.09 68.9308 173.834 68.7184 173.522 68.5624C173.219 68.3978 172.868 68.3154 172.469 68.3154C171.932 68.3154 171.473 68.4541 171.091 68.7314C170.71 69.0088 170.42 69.4248 170.22 69.9794C170.03 70.5341 169.934 71.2318 169.934 72.0724C169.934 72.9564 170.034 73.6801 170.233 74.2434C170.433 74.8068 170.723 75.2271 171.104 75.5044C171.494 75.7731 171.962 75.9074 172.508 75.9074C172.881 75.9074 173.21 75.8468 173.496 75.7254C173.782 75.6041 174.021 75.4394 174.211 75.2314C174.402 75.0234 174.549 74.7981 174.653 74.5554C174.757 74.3128 174.822 74.0701 174.848 73.8274L174.861 73.1774C174.879 73.0734 174.835 73.0214 174.731 73.0214H172.781C172.729 73.0214 172.69 73.0128 172.664 72.9954C172.638 72.9694 172.625 72.9261 172.625 72.8654V72.1764C172.625 72.0811 172.673 72.0334 172.768 72.0334L176.07 72.0464C176.157 72.0464 176.222 72.0681 176.265 72.1114C176.309 72.1461 176.33 72.1938 176.33 72.2544V76.7654C176.33 76.8261 176.313 76.8694 176.278 76.8954C176.252 76.9214 176.213 76.9344 176.161 76.9344H175.823C175.763 76.9344 175.706 76.9258 175.654 76.9084C175.611 76.8824 175.576 76.8348 175.55 76.7654L175.342 75.6474C175.334 75.6041 175.316 75.5824 175.29 75.5824C175.273 75.5824 175.247 75.6041 175.212 75.6474C175.056 75.8901 174.853 76.1198 174.601 76.3364C174.359 76.5531 174.055 76.7308 173.691 76.8694C173.336 76.9994 172.911 77.0644 172.417 77.0644ZM179.738 67.2884C179.851 67.2884 179.907 67.3534 179.907 67.4834V76.6874C179.907 76.7828 179.886 76.8478 179.842 76.8824C179.808 76.9171 179.738 76.9344 179.634 76.9344H178.568C178.473 76.9344 178.408 76.9214 178.373 76.8954C178.347 76.8608 178.334 76.8044 178.334 76.7264V67.4834C178.334 67.3534 178.395 67.2884 178.516 67.2884H179.738ZM181.57 67.4704C181.57 67.4098 181.583 67.3664 181.609 67.3404C181.643 67.3058 181.695 67.2884 181.765 67.2884H188.902C188.971 67.2884 189.019 67.3058 189.045 67.3404C189.071 67.3664 189.084 67.4098 189.084 67.4704V68.3024C189.084 68.4064 189.023 68.4584 188.902 68.4584H186.328C186.232 68.4584 186.185 68.4974 186.185 68.5754V76.7394C186.185 76.8694 186.128 76.9344 186.016 76.9344H184.794C184.681 76.9344 184.625 76.8738 184.625 76.7524V68.6014C184.625 68.5061 184.577 68.4584 184.482 68.4584H181.752C181.63 68.4584 181.57 68.4064 181.57 68.3024V67.4704ZM189.013 76.9344C188.953 76.9344 188.909 76.9084 188.883 76.8564C188.857 76.8044 188.857 76.7394 188.883 76.6614L192.198 67.4964C192.224 67.4184 192.259 67.3664 192.302 67.3404C192.346 67.3058 192.406 67.2884 192.484 67.2884H193.797C193.962 67.2884 194.07 67.3621 194.122 67.5094L197.411 76.6744C197.437 76.7351 197.437 76.7958 197.411 76.8564C197.385 76.9084 197.338 76.9344 197.268 76.9344H196.046C195.934 76.9344 195.86 76.8824 195.825 76.7784L194.993 74.4644C194.985 74.4211 194.967 74.3908 194.941 74.3734C194.924 74.3561 194.889 74.3474 194.837 74.3474H191.236C191.158 74.3474 191.106 74.3821 191.08 74.4514L190.235 76.8044C190.218 76.8478 190.192 76.8824 190.157 76.9084C190.131 76.9258 190.084 76.9344 190.014 76.9344H189.013ZM194.434 73.1254C194.547 73.1254 194.582 73.0648 194.538 72.9434L193.134 69.0434C193.1 68.9741 193.065 68.9394 193.03 68.9394C193.004 68.9394 192.978 68.9784 192.952 69.0564L191.509 72.9564C191.466 73.0691 191.496 73.1254 191.6 73.1254H194.434ZM199.104 67.4834C199.104 67.3534 199.165 67.2884 199.286 67.2884H200.508C200.621 67.2884 200.677 67.3534 200.677 67.4834V75.6084C200.677 75.7038 200.72 75.7514 200.807 75.7514H205.201C205.322 75.7514 205.383 75.8034 205.383 75.9074V76.7654C205.383 76.8174 205.366 76.8608 205.331 76.8954C205.305 76.9214 205.262 76.9344 205.201 76.9344H199.325C199.238 76.9344 199.178 76.9171 199.143 76.8824C199.117 76.8478 199.104 76.7958 199.104 76.7264V67.4834Z" fill="black"/>
<path d="M0 42.7043V2C0 0.895431 0.89543 0 2 0H25.8752C26.9798 0 27.8752 0.895431 27.8752 2V6.4784C27.8752 7.58297 26.9798 8.4784 25.8752 8.4784H10.1303C9.02571 8.4784 8.13028 9.37383 8.13028 10.4784V16.4983C8.13028 17.6029 9.02571 18.4983 10.1303 18.4983H24.7138C25.8183 18.4983 26.7138 19.3937 26.7138 20.4983V25.3621C26.7138 26.4667 25.8183 27.3621 24.7138 27.3621H10.1303C9.02571 27.3621 8.13028 28.2575 8.13028 29.3621V34.9966C8.13028 36.1012 9.02571 36.9966 10.1303 36.9966H25.8752C26.9798 36.9966 27.8752 37.8921 27.8752 38.9966V42.7043C27.8752 43.8088 26.9798 44.7043 25.8752 44.7043H2C0.895431 44.7043 0 43.8088 0 42.7043Z" fill="#0078D4"/>
<path d="M75.8826 42.7043V2C75.8826 0.895431 76.778 0 77.8826 0H101.758C102.862 0 103.758 0.895431 103.758 2V6.4784C103.758 7.58297 102.862 8.4784 101.758 8.4784H86.0128C84.9083 8.4784 84.0128 9.37383 84.0128 10.4784V16.4983C84.0128 17.6029 84.9083 18.4983 86.0128 18.4983H100.596C101.701 18.4983 102.596 19.3937 102.596 20.4983V25.3621C102.596 26.4667 101.701 27.3621 100.596 27.3621H86.0128C84.9083 27.3621 84.0128 28.2575 84.0128 29.3621V34.9966C84.0128 36.1012 84.9083 36.9966 86.0128 36.9966H101.758C102.862 36.9966 103.758 37.8921 103.758 38.9966V42.7043C103.758 43.8088 102.862 44.7043 101.758 44.7043H77.8826C76.778 44.7043 75.8826 43.8088 75.8826 42.7043Z" fill="#0078D4"/>
<path d="M34.0698 9.17607V2C34.0698 0.895431 34.9653 0 36.0698 0H67.6882C68.7927 0 69.6882 0.895433 69.6882 2V9.17607C69.6882 10.2806 68.7927 11.1761 67.6882 11.1761H60.0735C58.9689 11.1761 58.0735 12.0715 58.0735 13.1761V42.7043C58.0735 43.8088 57.1781 44.7043 56.0735 44.7043H48.846C47.7414 44.7043 46.846 43.8088 46.846 42.7043V13.1761C46.846 12.0715 45.9505 11.1761 44.846 11.1761H36.0698C34.9653 11.1761 34.0698 10.2806 34.0698 9.17607Z" fill="#005A9E"/>
<path d="M145.571 42.7043L145.571 36.5246C145.571 35.42 144.675 34.5246 143.571 34.5246H124.729C123.624 34.5246 122.729 33.6292 122.729 32.5246L122.729 12.0199C122.729 10.9154 123.624 10.0199 124.728 10.0199H143.571C144.675 10.0199 145.571 9.12449 145.571 8.01992V2C145.571 0.895431 144.675 0 143.571 0H113.501C112.396 0 111.501 0.895434 111.501 2V42.7043C111.501 43.8088 112.396 44.7043 113.501 44.7043H143.571C144.675 44.7043 145.571 43.8088 145.571 42.7043Z" fill="#005A9E"/>
<path d="M151.765 42.748V2C151.765 0.895431 152.661 0 153.765 0H166.026C167.13 0 168.026 0.895431 168.026 2V20.8106L183.899 0H197.839C198.749 0 199.545 0.615469 199.774 1.49707L210.352 42.2086C210.68 43.473 209.728 44.7078 208.421 44.7115L194.793 44.7496C193.857 44.7522 193.044 44.1046 192.837 43.1912L187.771 20.8106L168.026 44.7043L153.771 44.748C152.664 44.7513 151.765 43.8549 151.765 42.748Z" fill="#0078D4"/>
<path d="M168.026 44.7043V20.8106L183.899 0L187.771 20.8106L168.026 44.7043Z" fill="#005A9E"/>
</svg>
