<svg width="40" height="26" viewBox="0 0 40 26" fill="none" xmlns="http://www.w3.org/2000/svg">
<path d="M2.22223 25.5C1.5926 25.5 1.06445 25.296 0.637785 24.888C0.211119 24.48 -0.00147379 23.9757 7.68935e-06 23.375C7.68935e-06 22.7729 0.213341 22.2679 0.640008 21.8599C1.06667 21.4519 1.59408 21.2486 2.22223 21.25H37.7778C38.4074 21.25 38.9355 21.454 39.3622 21.862C39.7889 22.27 40.0015 22.7743 40 23.375C40 23.9771 39.7867 24.4821 39.36 24.8901C38.9333 25.2981 38.4059 25.5014 37.7778 25.5H2.22223ZM2.22223 14.875C1.5926 14.875 1.06445 14.671 0.637785 14.263C0.211119 13.855 -0.00147379 13.3507 7.68935e-06 12.75C7.68935e-06 12.1479 0.213341 11.6429 0.640008 11.2349C1.06667 10.8269 1.59408 10.6236 2.22223 10.625H37.7778C38.4074 10.625 38.9355 10.829 39.3622 11.237C39.7889 11.645 40.0015 12.1493 40 12.75C40 13.3521 39.7867 13.8571 39.36 14.2651C38.9333 14.6731 38.4059 14.8764 37.7778 14.875H2.22223ZM2.22223 4.25001C1.5926 4.25001 1.06445 4.04601 0.637785 3.63801C0.211119 3.23001 -0.00147379 2.72567 7.68935e-06 2.12501C7.68935e-06 1.52292 0.213341 1.01788 0.640008 0.609883C1.06667 0.201883 1.59408 -0.00140931 2.22223 7.35293e-06H37.7778C38.4074 7.35293e-06 38.9355 0.204008 39.3622 0.612007C39.7889 1.02001 40.0015 1.52434 40 2.12501C40 2.72709 39.7867 3.23213 39.36 3.64013C38.9333 4.04813 38.4059 4.25142 37.7778 4.25001H2.22223Z" fill="#222527"/>
</svg>
