<svg width="31" height="31" viewBox="0 0 31 31" fill="none" xmlns="http://www.w3.org/2000/svg">
<path d="M28.3583 30.75L17.5958 19.9875C16.7417 20.6708 15.7594 21.2118 14.649 21.6104C13.5385 22.009 12.3569 22.2083 11.1042 22.2083C8.00069 22.2083 5.37442 21.1332 3.22533 18.983C1.07625 16.8328 0.00113889 14.2065 0 11.1042C0 8.00069 1.07511 5.37442 3.22533 3.22533C5.37556 1.07625 8.00183 0.00113889 11.1042 0C14.2076 0 16.8339 1.07511 18.983 3.22533C21.1321 5.37556 22.2072 8.00183 22.2083 11.1042C22.2083 12.3569 22.009 13.5385 21.6104 14.649C21.2118 15.7594 20.6708 16.7417 19.9875 17.5958L30.75 28.3583L28.3583 30.75ZM11.1042 18.7917C13.2396 18.7917 15.055 18.044 16.5503 16.5486C18.0457 15.0533 18.7928 13.2384 18.7917 11.1042C18.7917 8.96875 18.044 7.15336 16.5486 5.658C15.0533 4.16264 13.2384 3.41553 11.1042 3.41667C8.96875 3.41667 7.15336 4.16435 5.658 5.65971C4.16264 7.15507 3.41553 8.96989 3.41667 11.1042C3.41667 13.2396 4.16435 15.055 5.65971 16.5503C7.15507 18.0457 8.96989 18.7928 11.1042 18.7917Z" fill="#222527"/>
</svg>
